<?xml version="1.0" standalone="no"?>
<!DOCTYPE svg PUBLIC "-//W3C//DTD SVG 20010904//EN"
 "http://www.w3.org/TR/2001/REC-SVG-20010904/DTD/svg10.dtd">
<svg version="1.0" xmlns="http://www.w3.org/2000/svg"
 width="1120.000000pt" height="1120.000000pt" viewBox="0 0 1120.000000 1120.000000"
 preserveAspectRatio="xMidYMid meet">

<g transform="translate(0.000000,1120.000000) scale(0.100000,-0.100000)"
fill="#000000" stroke="none">
<path d="M6830 8111 c-349 -121 -543 -229 -723 -400 -148 -140 -245 -294 -288
-457 -17 -65 -21 -109 -21 -244 -1 -91 2 -175 6 -188 7 -21 10 -20 64 29 136
121 264 190 567 304 332 124 427 171 474 232 34 42 35 67 6 190 -23 98 -27
130 -22 204 7 102 50 242 102 332 28 47 31 57 17 56 -9 0 -91 -26 -182 -58z"/>
<path d="M7111 7446 c-18 -26 -67 -76 -109 -112 -79 -67 -69 -62 -612 -327
-234 -115 -301 -158 -400 -257 -122 -121 -180 -263 -180 -436 0 -80 24 -231
40 -247 4 -5 43 17 86 49 153 113 298 172 624 254 378 95 493 142 580 237 37
40 55 71 70 120 26 84 25 122 -5 282 -14 73 -30 194 -36 269 -6 75 -13 154
-17 176 l-7 39 -34 -47z"/>
<path d="M4170 7312 c0 -75 -8 -155 -26 -251 -14 -78 -23 -148 -20 -156 6 -17
141 -60 254 -81 116 -21 332 -28 587 -19 186 7 207 9 190 22 -42 31 -227 125
-360 183 -344 151 -423 198 -544 326 l-81 85 0 -109z"/>
<path d="M4115 6783 c40 -216 162 -293 608 -383 323 -66 480 -114 630 -193
113 -60 209 -129 283 -204 48 -50 52 -51 58 -30 11 41 6 201 -9 270 -17 80
-69 183 -133 263 -59 73 -180 175 -252 213 l-55 28 -260 -9 c-400 -13 -610 2
-785 58 -41 13 -79 24 -84 24 -4 0 -5 -17 -1 -37z"/>
<path d="M7335 6563 c-134 -78 -297 -147 -575 -241 -365 -124 -447 -159 -575
-245 -189 -128 -350 -381 -358 -560 l-2 -52 51 -17 c125 -41 350 -48 495 -14
274 64 582 267 778 511 119 149 194 304 242 500 42 175 42 175 -56 118z"/>
<path d="M4399 5137 c-91 -61 -81 -202 17 -243 93 -39 188 15 200 113 14 112
-122 194 -217 130z"/>
<path d="M9183 5127 c-32 -30 -37 -41 -41 -91 -3 -37 0 -66 9 -83 17 -31 87
-73 123 -73 130 0 189 162 91 249 -31 27 -44 31 -90 31 -49 0 -60 -4 -92 -33z"/>
<path d="M4943 5115 c-138 -38 -216 -138 -216 -280 0 -136 60 -216 262 -349
115 -75 151 -116 151 -170 0 -75 -42 -106 -140 -106 -69 0 -171 35 -228 78
-18 14 -35 22 -39 18 -3 -3 -8 -50 -11 -104 -5 -116 -2 -120 110 -160 60 -21
91 -26 178 -26 95 -1 111 2 168 28 119 55 179 156 170 285 -10 131 -62 201
-251 330 -128 88 -167 130 -167 181 0 103 152 133 306 61 37 -17 68 -30 69
-29 1 2 5 47 7 101 6 117 6 117 -114 141 -94 19 -185 19 -255 1z"/>
<path d="M8342 4578 l3 -543 98 -3 97 -3 0 236 c0 260 7 309 50 350 56 54 178
43 222 -18 22 -31 23 -40 26 -299 l3 -268 100 0 101 0 -4 288 c-5 315 -8 336
-68 412 -17 21 -54 50 -82 64 -44 22 -65 26 -139 26 -76 0 -93 -4 -145 -30
-32 -16 -60 -30 -61 -30 -2 0 -3 81 -3 180 l0 180 -100 0 -100 0 2 -542z"/>
<path d="M2179 5073 c-31 -82 -358 -998 -366 -1026 -5 -16 3 -17 103 -15 l109
3 39 113 38 112 204 0 c157 0 204 -3 204 -12 0 -7 16 -59 36 -115 l37 -103
108 0 c85 0 109 3 109 14 0 13 -61 179 -165 446 -31 80 -91 237 -134 350 -44
113 -84 217 -90 233 l-11 27 -105 0 c-105 0 -106 0 -116 -27z m146 -313 c10
-30 37 -108 61 -173 24 -65 44 -122 44 -127 0 -6 -54 -10 -130 -10 -76 0 -130
4 -130 10 0 5 24 78 54 162 30 84 58 166 62 181 8 36 17 26 39 -43z"/>
<path d="M7923 5043 l-32 -4 -3 -107 -3 -107 -38 -3 -38 -3 3 -92 3 -92 35 0
35 0 1 -225 c0 -255 5 -281 64 -334 44 -39 86 -49 195 -44 l70 3 3 83 3 82
-49 0 c-81 0 -82 4 -82 233 l0 197 59 0 58 0 6 87 c3 49 3 91 0 95 -2 5 -31 8
-64 8 l-59 0 0 115 0 115 -67 -2 c-38 0 -82 -3 -100 -5z"/>
<path d="M3127 4820 c-238 -60 -352 -354 -223 -574 98 -168 366 -238 515 -135
l44 31 -5 -67 c-8 -93 -49 -135 -148 -149 -88 -12 -239 33 -318 94 l-27 21 -6
-24 c-4 -14 -10 -56 -14 -94 -6 -59 -4 -71 12 -85 39 -36 137 -71 218 -78 100
-9 274 4 312 23 16 8 51 40 80 70 82 87 83 92 83 564 l0 403 -95 0 -95 0 0
-31 c0 -17 -3 -29 -7 -27 -107 55 -131 62 -208 64 -44 2 -97 -1 -118 -6z m204
-175 c85 -30 129 -96 129 -192 0 -66 -17 -108 -61 -149 -45 -42 -98 -58 -172
-51 -45 4 -68 12 -96 34 -126 101 -101 306 46 358 51 19 101 18 154 0z"/>
<path d="M4140 4821 c-38 -12 -85 -38 -99 -55 -20 -24 -31 -19 -31 14 l0 30
-95 0 -95 0 0 -390 0 -391 98 3 97 3 5 255 c4 181 9 262 18 277 18 32 69 56
127 59 l50 2 3 101 3 101 -28 -1 c-15 0 -39 -4 -53 -8z"/>
<path d="M5580 4820 c-25 -5 -62 -14 -83 -20 -43 -12 -40 5 -21 -145 3 -25 7
-45 10 -45 3 0 32 9 66 21 59 20 157 27 198 14 23 -7 50 -53 50 -84 0 -27 -22
-37 -96 -44 -169 -17 -264 -95 -280 -230 -14 -122 48 -226 157 -262 69 -23
249 -16 329 12 l55 20 0 316 0 315 -30 44 c-45 65 -107 92 -220 95 -49 1 -110
-2 -135 -7z m218 -543 l3 -107 -26 -10 c-95 -36 -188 32 -171 124 8 43 54 83
104 91 20 4 42 8 47 10 35 13 40 1 43 -108z"/>
<path d="M6200 4815 c-100 -23 -93 -14 -87 -111 2 -47 7 -88 11 -91 3 -3 23 1
44 10 65 26 155 39 202 28 50 -11 69 -34 70 -83 0 -37 0 -37 -47 -42 -156 -19
-247 -61 -290 -134 -24 -41 -28 -58 -28 -127 0 -64 5 -90 24 -129 26 -53 86
-99 156 -117 57 -16 277 2 328 27 l38 18 -3 301 c-3 300 -3 301 -29 350 -17
35 -39 59 -72 79 -43 27 -57 30 -150 32 -65 2 -126 -2 -167 -11z m238 -537
l-3 -112 -32 -9 c-44 -13 -101 0 -129 28 -33 33 -34 112 -1 150 22 26 94 53
145 54 22 1 23 0 20 -111z"/>
<path d="M6885 4824 c-16 -3 -54 -12 -83 -20 l-53 -15 6 -57 c14 -135 12 -131
67 -107 91 37 217 37 245 -1 12 -16 19 -94 9 -94 -38 0 -171 -26 -210 -41 -62
-25 -121 -80 -138 -128 -6 -20 -12 -68 -12 -107 1 -95 29 -155 92 -195 l46
-29 169 0 c136 0 176 3 204 16 l34 17 -3 301 c-3 298 -3 301 -28 351 -18 36
-38 58 -73 79 -42 26 -57 29 -145 32 -53 1 -110 0 -127 -2z m203 -529 c2 -49
0 -100 -3 -112 -11 -44 -128 -40 -169 6 -23 25 -30 89 -14 120 25 47 96 82
158 78 24 -2 25 -4 28 -92z"/>
<path d="M7695 4821 c-40 -10 -66 -25 -89 -50 l-20 -22 -12 31 -13 30 -86 0
-85 0 0 -385 0 -386 96 3 97 3 -2 205 c-3 317 13 360 132 370 l62 5 3 103 3
102 -28 -1 c-15 -1 -41 -4 -58 -8z"/>
<path d="M4380 4425 l0 -395 100 0 100 0 0 395 0 395 -100 0 -100 0 0 -395z"/>
<path d="M9180 4425 l0 -395 100 0 100 0 0 395 0 395 -100 0 -100 0 0 -395z"/>
</g>
</svg>
